<mxfile host="app.diagrams.net" modified="2024-04-04T03:57:15.399Z" agent="Mozilla/5.0 (Windows NT 10.0; Win64; x64) AppleWebKit/537.36 (KHTML, like Gecko) Chrome/123.0.0.0 Safari/537.36" etag="s9t3atqjn0jDddhiUkkG" version="24.2.2" type="github">
  <diagram id="prtHgNgQTEPvFCAcTncT" name="Page-1">
    <mxGraphModel dx="1222" dy="705" grid="1" gridSize="10" guides="1" tooltips="1" connect="1" arrows="1" fold="1" page="1" pageScale="1" pageWidth="1600" pageHeight="1200" math="0" shadow="0">
      <root>
        <mxCell id="0" />
        <mxCell id="1" parent="0" />
        <mxCell id="dNxyNK7c78bLwvsdeMH5-19" value="TU Library" style="swimlane;html=1;childLayout=stackLayout;resizeParent=1;resizeParentMax=0;horizontal=0;startSize=20;horizontalStack=0;" parent="1" vertex="1">
          <mxGeometry x="51" y="29" width="1430" height="1190" as="geometry" />
        </mxCell>
        <mxCell id="M6i8ldN1hpBLd04Djtbs-2" value="สำนักทะเบียนมธ." style="swimlane;html=1;startSize=20;horizontal=0;" parent="dNxyNK7c78bLwvsdeMH5-19" vertex="1">
          <mxGeometry x="20" width="1410" height="170" as="geometry" />
        </mxCell>
        <mxCell id="NBcu9S_2Oj-sg9Alpb2j-1" value="ดึงข้อมูล" style="rounded=0;whiteSpace=wrap;html=1;fontFamily=Helvetica;fontSize=12;fontColor=#000000;align=center;" vertex="1" parent="M6i8ldN1hpBLd04Djtbs-2">
          <mxGeometry x="112" y="30" width="80" height="60" as="geometry" />
        </mxCell>
        <mxCell id="dNxyNK7c78bLwvsdeMH5-20" value="Web library" style="swimlane;html=1;startSize=20;horizontal=0;" parent="dNxyNK7c78bLwvsdeMH5-19" vertex="1">
          <mxGeometry x="20" y="170" width="1410" height="220" as="geometry" />
        </mxCell>
        <mxCell id="dNxyNK7c78bLwvsdeMH5-33" value="" style="edgeStyle=orthogonalEdgeStyle;rounded=0;orthogonalLoop=1;jettySize=auto;html=1;endArrow=classic;endFill=1;" parent="dNxyNK7c78bLwvsdeMH5-20" source="dNxyNK7c78bLwvsdeMH5-30" edge="1">
          <mxGeometry relative="1" as="geometry">
            <mxPoint x="461" y="60" as="targetPoint" />
          </mxGeometry>
        </mxCell>
        <mxCell id="dNxyNK7c78bLwvsdeMH5-30" value="กดจอง" style="rounded=0;whiteSpace=wrap;html=1;fontFamily=Helvetica;fontSize=12;fontColor=#000000;align=center;" parent="dNxyNK7c78bLwvsdeMH5-20" vertex="1">
          <mxGeometry x="341" y="30" width="80" height="60" as="geometry" />
        </mxCell>
        <mxCell id="dNxyNK7c78bLwvsdeMH5-26" value="เลือกหนังสือ" style="rounded=0;whiteSpace=wrap;html=1;fontFamily=Helvetica;fontSize=12;fontColor=#000000;align=center;" parent="dNxyNK7c78bLwvsdeMH5-20" vertex="1">
          <mxGeometry x="220" y="30" width="80" height="60" as="geometry" />
        </mxCell>
        <mxCell id="M6i8ldN1hpBLd04Djtbs-4" value="" style="rhombus;whiteSpace=wrap;html=1;fontFamily=Helvetica;fontSize=12;fontColor=#000000;align=center;" parent="dNxyNK7c78bLwvsdeMH5-20" vertex="1">
          <mxGeometry x="461" y="40" width="40" height="40" as="geometry" />
        </mxCell>
        <mxCell id="M6i8ldN1hpBLd04Djtbs-5" value="เลือกห้องสมุดที่ต้องการรับหนังสือ" style="rounded=0;whiteSpace=wrap;html=1;fontFamily=Helvetica;fontSize=12;fontColor=#000000;align=center;" parent="dNxyNK7c78bLwvsdeMH5-20" vertex="1">
          <mxGeometry x="545" y="30" width="100" height="60" as="geometry" />
        </mxCell>
        <mxCell id="M6i8ldN1hpBLd04Djtbs-7" value="เลือกห้องสมุดที่ต้องการรับหนังสือ" style="rounded=0;whiteSpace=wrap;html=1;fontFamily=Helvetica;fontSize=12;fontColor=#000000;align=center;" parent="dNxyNK7c78bLwvsdeMH5-20" vertex="1">
          <mxGeometry x="432" y="120" width="100" height="60" as="geometry" />
        </mxCell>
        <mxCell id="M6i8ldN1hpBLd04Djtbs-8" style="edgeStyle=orthogonalEdgeStyle;rounded=0;orthogonalLoop=1;jettySize=auto;html=1;endArrow=classic;endFill=1;entryX=0.443;entryY=-0.001;entryDx=0;entryDy=0;entryPerimeter=0;" parent="dNxyNK7c78bLwvsdeMH5-20" edge="1">
          <mxGeometry relative="1" as="geometry">
            <mxPoint x="481.6" y="80" as="sourcePoint" />
            <mxPoint x="481.29999999999995" y="119.94000000000005" as="targetPoint" />
            <Array as="points" />
          </mxGeometry>
        </mxCell>
        <mxCell id="M6i8ldN1hpBLd04Djtbs-10" value="ว่าง" style="text;strokeColor=none;align=center;fillColor=none;html=1;verticalAlign=middle;whiteSpace=wrap;rounded=0;" parent="dNxyNK7c78bLwvsdeMH5-20" vertex="1">
          <mxGeometry x="489" y="37" width="60" height="30" as="geometry" />
        </mxCell>
        <mxCell id="M6i8ldN1hpBLd04Djtbs-11" value="ไม่ว่าง" style="text;strokeColor=none;align=center;fillColor=none;html=1;verticalAlign=middle;whiteSpace=wrap;rounded=0;" parent="dNxyNK7c78bLwvsdeMH5-20" vertex="1">
          <mxGeometry x="471" y="80" width="60" height="30" as="geometry" />
        </mxCell>
        <mxCell id="M6i8ldN1hpBLd04Djtbs-13" value="" style="edgeStyle=orthogonalEdgeStyle;rounded=0;orthogonalLoop=1;jettySize=auto;html=1;dashed=1;endArrow=classic;endFill=1;startArrow=classic;startFill=1;entryX=0.5;entryY=1;entryDx=0;entryDy=0;" parent="dNxyNK7c78bLwvsdeMH5-20" edge="1">
          <mxGeometry relative="1" as="geometry">
            <mxPoint x="257" y="286" as="sourcePoint" />
            <mxPoint x="256.68" y="90" as="targetPoint" />
          </mxGeometry>
        </mxCell>
        <mxCell id="M6i8ldN1hpBLd04Djtbs-17" value="" style="edgeStyle=orthogonalEdgeStyle;rounded=0;orthogonalLoop=1;jettySize=auto;html=1;endArrow=none;endFill=0;startArrow=classic;startFill=1;entryX=1;entryY=0.5;entryDx=0;entryDy=0;exitX=0;exitY=0.5;exitDx=0;exitDy=0;" parent="dNxyNK7c78bLwvsdeMH5-20" edge="1" target="M6i8ldN1hpBLd04Djtbs-7" source="M6i8ldN1hpBLd04Djtbs-16">
          <mxGeometry relative="1" as="geometry">
            <mxPoint x="482" y="470" as="sourcePoint" />
            <mxPoint x="481.76" y="180" as="targetPoint" />
          </mxGeometry>
        </mxCell>
        <mxCell id="M6i8ldN1hpBLd04Djtbs-21" value="รอมารับหนังสือ" style="rounded=0;whiteSpace=wrap;html=1;fontFamily=Helvetica;fontSize=12;fontColor=#000000;align=center;" parent="dNxyNK7c78bLwvsdeMH5-20" vertex="1">
          <mxGeometry x="730" y="120" width="80" height="60" as="geometry" />
        </mxCell>
        <mxCell id="dNxyNK7c78bLwvsdeMH5-23" value="" style="ellipse;whiteSpace=wrap;html=1;" parent="dNxyNK7c78bLwvsdeMH5-20" vertex="1">
          <mxGeometry x="40" y="40" width="40" height="40" as="geometry" />
        </mxCell>
        <mxCell id="dNxyNK7c78bLwvsdeMH5-24" value="sign in" style="rounded=0;whiteSpace=wrap;html=1;fontFamily=Helvetica;fontSize=12;fontColor=#000000;align=center;" parent="dNxyNK7c78bLwvsdeMH5-20" vertex="1">
          <mxGeometry x="112" y="30" width="80" height="60" as="geometry" />
        </mxCell>
        <mxCell id="dNxyNK7c78bLwvsdeMH5-27" value="" style="edgeStyle=orthogonalEdgeStyle;rounded=0;orthogonalLoop=1;jettySize=auto;html=1;dashed=1;endArrow=none;endFill=0;startArrow=classic;startFill=1;entryX=1;entryY=0.5;entryDx=0;entryDy=0;exitX=0;exitY=0.5;exitDx=0;exitDy=0;" parent="dNxyNK7c78bLwvsdeMH5-20" source="dNxyNK7c78bLwvsdeMH5-26" target="dNxyNK7c78bLwvsdeMH5-24" edge="1">
          <mxGeometry relative="1" as="geometry">
            <mxPoint x="205" y="-10" as="sourcePoint" />
          </mxGeometry>
        </mxCell>
        <mxCell id="dNxyNK7c78bLwvsdeMH5-25" value="" style="edgeStyle=orthogonalEdgeStyle;rounded=0;orthogonalLoop=1;jettySize=auto;html=1;" parent="dNxyNK7c78bLwvsdeMH5-20" source="dNxyNK7c78bLwvsdeMH5-23" target="dNxyNK7c78bLwvsdeMH5-24" edge="1">
          <mxGeometry relative="1" as="geometry" />
        </mxCell>
        <mxCell id="M6i8ldN1hpBLd04Djtbs-16" value="จองคิว" style="rounded=0;whiteSpace=wrap;html=1;fontFamily=Helvetica;fontSize=12;fontColor=#000000;align=center;" parent="dNxyNK7c78bLwvsdeMH5-20" vertex="1">
          <mxGeometry x="597" y="120" width="80" height="60" as="geometry" />
        </mxCell>
        <mxCell id="M6i8ldN1hpBLd04Djtbs-25" value="ถึงคิว" style="text;html=1;align=center;verticalAlign=middle;resizable=1;points=[];autosize=1;strokeColor=none;fillColor=none;movable=1;rotatable=1;deletable=1;editable=1;locked=0;connectable=1;" parent="dNxyNK7c78bLwvsdeMH5-20" vertex="1">
          <mxGeometry x="862" y="110" width="50" height="30" as="geometry" />
        </mxCell>
        <mxCell id="M6i8ldN1hpBLd04Djtbs-23" value="" style="ellipse;whiteSpace=wrap;html=1;" parent="dNxyNK7c78bLwvsdeMH5-20" vertex="1">
          <mxGeometry x="867" y="134" width="40" height="40" as="geometry" />
        </mxCell>
        <mxCell id="M6i8ldN1hpBLd04Djtbs-24" value="" style="shape=image;html=1;verticalAlign=top;verticalLabelPosition=bottom;labelBackgroundColor=#ffffff;imageAspect=0;aspect=fixed;image=https://cdn4.iconfinder.com/data/icons/48-bubbles/48/12.File-128.png" parent="dNxyNK7c78bLwvsdeMH5-20" vertex="1">
          <mxGeometry x="879" y="145" width="18" height="18" as="geometry" />
        </mxCell>
        <mxCell id="NBcu9S_2Oj-sg9Alpb2j-12" value="" style="edgeStyle=none;orthogonalLoop=1;jettySize=auto;html=1;rounded=0;exitX=1;exitY=0.5;exitDx=0;exitDy=0;entryX=0;entryY=0.5;entryDx=0;entryDy=0;" edge="1" parent="dNxyNK7c78bLwvsdeMH5-20" source="M6i8ldN1hpBLd04Djtbs-16" target="M6i8ldN1hpBLd04Djtbs-21">
          <mxGeometry width="100" relative="1" as="geometry">
            <mxPoint x="647" y="151" as="sourcePoint" />
            <mxPoint x="727" y="150" as="targetPoint" />
            <Array as="points" />
          </mxGeometry>
        </mxCell>
        <mxCell id="dNxyNK7c78bLwvsdeMH5-21" value="Library catalog" style="swimlane;html=1;startSize=20;horizontal=0;" parent="dNxyNK7c78bLwvsdeMH5-19" vertex="1">
          <mxGeometry x="20" y="390" width="1410" height="350" as="geometry" />
        </mxCell>
        <mxCell id="M6i8ldN1hpBLd04Djtbs-12" value="View book catalog" style="rounded=0;whiteSpace=wrap;html=1;fontFamily=Helvetica;fontSize=12;fontColor=#000000;align=center;" parent="dNxyNK7c78bLwvsdeMH5-21" vertex="1">
          <mxGeometry x="210" y="66" width="110" height="60" as="geometry" />
        </mxCell>
        <mxCell id="NBcu9S_2Oj-sg9Alpb2j-8" value="View book detail" style="rounded=0;whiteSpace=wrap;html=1;fontFamily=Helvetica;fontSize=12;fontColor=#000000;align=center;" vertex="1" parent="dNxyNK7c78bLwvsdeMH5-21">
          <mxGeometry x="210" y="222.5" width="110" height="60" as="geometry" />
        </mxCell>
        <mxCell id="NBcu9S_2Oj-sg9Alpb2j-10" value="" style="edgeStyle=none;orthogonalLoop=1;jettySize=auto;html=1;rounded=0;exitX=0.428;exitY=0.024;exitDx=0;exitDy=0;exitPerimeter=0;dashed=1;startArrow=classic;startFill=1;" edge="1" parent="dNxyNK7c78bLwvsdeMH5-21" source="NBcu9S_2Oj-sg9Alpb2j-8">
          <mxGeometry width="100" relative="1" as="geometry">
            <mxPoint x="257.02" y="255.98000000000002" as="sourcePoint" />
            <mxPoint x="257" y="126" as="targetPoint" />
            <Array as="points" />
          </mxGeometry>
        </mxCell>
        <mxCell id="NBcu9S_2Oj-sg9Alpb2j-3" value="Inventory" style="swimlane;html=1;startSize=20;horizontal=0;" vertex="1" parent="dNxyNK7c78bLwvsdeMH5-19">
          <mxGeometry x="20" y="740" width="1410" height="250" as="geometry" />
        </mxCell>
        <mxCell id="NBcu9S_2Oj-sg9Alpb2j-5" value="ข้อมูลจำนวนชิ้นของหนังสือ" style="rounded=0;whiteSpace=wrap;html=1;fontFamily=Helvetica;fontSize=12;fontColor=#000000;align=center;" vertex="1" parent="NBcu9S_2Oj-sg9Alpb2j-3">
          <mxGeometry x="151" y="60.5" width="190" height="60" as="geometry" />
        </mxCell>
        <mxCell id="M6i8ldN1hpBLd04Djtbs-33" value="หยิบหนังสือเตรียมไว้ที่เคาท์เตอร์" style="rounded=0;whiteSpace=wrap;html=1;fontFamily=Helvetica;fontSize=12;fontColor=#000000;align=center;" parent="NBcu9S_2Oj-sg9Alpb2j-3" vertex="1">
          <mxGeometry x="827" y="38" width="110" height="67.5" as="geometry" />
        </mxCell>
        <mxCell id="M6i8ldN1hpBLd04Djtbs-32" value="" style="ellipse;whiteSpace=wrap;html=1;fillColor=#000000;" parent="NBcu9S_2Oj-sg9Alpb2j-3" vertex="1">
          <mxGeometry x="1226.5" y="171" width="25" height="25" as="geometry" />
        </mxCell>
        <mxCell id="NBcu9S_2Oj-sg9Alpb2j-11" value="book check out" style="rounded=0;whiteSpace=wrap;html=1;fontFamily=Helvetica;fontSize=12;fontColor=#000000;align=center;" vertex="1" parent="NBcu9S_2Oj-sg9Alpb2j-3">
          <mxGeometry x="969" y="151" width="171" height="60" as="geometry" />
        </mxCell>
        <mxCell id="NBcu9S_2Oj-sg9Alpb2j-17" value="" style="edgeStyle=none;orthogonalLoop=1;jettySize=auto;html=1;rounded=0;exitX=0.5;exitY=1;exitDx=0;exitDy=0;entryX=0;entryY=0.5;entryDx=0;entryDy=0;" edge="1" parent="NBcu9S_2Oj-sg9Alpb2j-3" source="M6i8ldN1hpBLd04Djtbs-33" target="NBcu9S_2Oj-sg9Alpb2j-11">
          <mxGeometry width="100" relative="1" as="geometry">
            <mxPoint x="909" y="61" as="sourcePoint" />
            <mxPoint x="1009" y="61" as="targetPoint" />
            <Array as="points">
              <mxPoint x="882" y="181" />
            </Array>
          </mxGeometry>
        </mxCell>
        <mxCell id="M6i8ldN1hpBLd04Djtbs-39" value="รอมารับหนังสือ" style="text;html=1;align=center;verticalAlign=middle;resizable=0;points=[];autosize=1;strokeColor=none;fillColor=none;" parent="NBcu9S_2Oj-sg9Alpb2j-3" vertex="1">
          <mxGeometry x="1189" y="141" width="100" height="30" as="geometry" />
        </mxCell>
        <mxCell id="M6i8ldN1hpBLd04Djtbs-27" value="หยิบหนังสือเตรียมไว้ที่ Locker" style="rounded=0;whiteSpace=wrap;html=1;fontFamily=Helvetica;fontSize=12;fontColor=#000000;align=center;" parent="NBcu9S_2Oj-sg9Alpb2j-3" vertex="1">
          <mxGeometry x="1029" y="36" width="131" height="70" as="geometry" />
        </mxCell>
        <mxCell id="NBcu9S_2Oj-sg9Alpb2j-21" value="" style="edgeStyle=none;orthogonalLoop=1;jettySize=auto;html=1;rounded=0;entryX=0;entryY=0.5;entryDx=0;entryDy=0;exitX=1.002;exitY=0.553;exitDx=0;exitDy=0;exitPerimeter=0;" edge="1" parent="NBcu9S_2Oj-sg9Alpb2j-3" source="NBcu9S_2Oj-sg9Alpb2j-11" target="M6i8ldN1hpBLd04Djtbs-32">
          <mxGeometry width="100" relative="1" as="geometry">
            <mxPoint x="1079" y="183.30999999999995" as="sourcePoint" />
            <mxPoint x="1179" y="183.30999999999995" as="targetPoint" />
            <Array as="points" />
          </mxGeometry>
        </mxCell>
        <mxCell id="NBcu9S_2Oj-sg9Alpb2j-22" value="" style="edgeStyle=none;orthogonalLoop=1;jettySize=auto;html=1;rounded=0;entryX=0.661;entryY=0.016;entryDx=0;entryDy=0;entryPerimeter=0;exitX=0.407;exitY=1.007;exitDx=0;exitDy=0;exitPerimeter=0;" edge="1" parent="NBcu9S_2Oj-sg9Alpb2j-3" source="M6i8ldN1hpBLd04Djtbs-27" target="NBcu9S_2Oj-sg9Alpb2j-11">
          <mxGeometry width="100" relative="1" as="geometry">
            <mxPoint x="1079" y="111" as="sourcePoint" />
            <mxPoint x="1059" y="91" as="targetPoint" />
            <Array as="points" />
          </mxGeometry>
        </mxCell>
        <mxCell id="NBcu9S_2Oj-sg9Alpb2j-4" style="swimlane;html=1;startSize=20;horizontal=0;" vertex="1" parent="dNxyNK7c78bLwvsdeMH5-19">
          <mxGeometry x="20" y="990" width="1410" height="200" as="geometry" />
        </mxCell>
        <mxCell id="NBcu9S_2Oj-sg9Alpb2j-2" value="" style="edgeStyle=none;orthogonalLoop=1;jettySize=auto;html=1;endArrow=classic;startArrow=classic;endSize=8;startSize=8;rounded=0;entryX=0.5;entryY=0;entryDx=0;entryDy=0;exitX=0.5;exitY=1;exitDx=0;exitDy=0;dashed=1;" edge="1" parent="dNxyNK7c78bLwvsdeMH5-19" source="NBcu9S_2Oj-sg9Alpb2j-1" target="dNxyNK7c78bLwvsdeMH5-24">
          <mxGeometry width="100" relative="1" as="geometry">
            <mxPoint x="122" y="100" as="sourcePoint" />
            <mxPoint x="222" y="100" as="targetPoint" />
            <Array as="points" />
          </mxGeometry>
        </mxCell>
        <mxCell id="NBcu9S_2Oj-sg9Alpb2j-6" value="" style="edgeStyle=none;orthogonalLoop=1;jettySize=auto;html=1;rounded=0;exitX=0.558;exitY=0.008;exitDx=0;exitDy=0;exitPerimeter=0;dashed=1;startArrow=classic;startFill=1;" edge="1" parent="dNxyNK7c78bLwvsdeMH5-19">
          <mxGeometry width="100" relative="1" as="geometry">
            <mxPoint x="277.02" y="802.98" as="sourcePoint" />
            <mxPoint x="277" y="673" as="targetPoint" />
            <Array as="points" />
          </mxGeometry>
        </mxCell>
        <mxCell id="NBcu9S_2Oj-sg9Alpb2j-7" value="" style="edgeStyle=none;orthogonalLoop=1;jettySize=auto;html=1;rounded=0;exitX=0.057;exitY=0.017;exitDx=0;exitDy=0;exitPerimeter=0;dashed=1;entryX=0.128;entryY=1.011;entryDx=0;entryDy=0;entryPerimeter=0;" edge="1" parent="dNxyNK7c78bLwvsdeMH5-19" source="NBcu9S_2Oj-sg9Alpb2j-5" target="dNxyNK7c78bLwvsdeMH5-26">
          <mxGeometry width="100" relative="1" as="geometry">
            <mxPoint x="137" y="501" as="sourcePoint" />
            <mxPoint x="257" y="281" as="targetPoint" />
            <Array as="points">
              <mxPoint x="181" y="291" />
              <mxPoint x="251" y="291" />
            </Array>
          </mxGeometry>
        </mxCell>
        <mxCell id="M6i8ldN1hpBLd04Djtbs-26" value="" style="edgeStyle=orthogonalEdgeStyle;rounded=0;orthogonalLoop=1;jettySize=auto;html=1;dashed=1;endArrow=none;endFill=0;startArrow=classic;startFill=1;entryX=0.5;entryY=1;entryDx=0;entryDy=0;exitX=0.548;exitY=0.001;exitDx=0;exitDy=0;exitPerimeter=0;" parent="dNxyNK7c78bLwvsdeMH5-19" edge="1" target="M6i8ldN1hpBLd04Djtbs-23" source="M6i8ldN1hpBLd04Djtbs-33">
          <mxGeometry relative="1" as="geometry">
            <mxPoint x="926.75" y="421.88" as="sourcePoint" />
            <mxPoint x="926.75" y="344" as="targetPoint" />
          </mxGeometry>
        </mxCell>
        <mxCell id="M6i8ldN1hpBLd04Djtbs-3" value="" style="edgeStyle=orthogonalEdgeStyle;rounded=0;orthogonalLoop=1;jettySize=auto;html=1;endArrow=classic;endFill=1;" parent="1" edge="1">
          <mxGeometry relative="1" as="geometry">
            <mxPoint x="372" y="260" as="sourcePoint" />
            <mxPoint x="412" y="260" as="targetPoint" />
          </mxGeometry>
        </mxCell>
        <mxCell id="M6i8ldN1hpBLd04Djtbs-6" value="" style="edgeStyle=orthogonalEdgeStyle;rounded=0;orthogonalLoop=1;jettySize=auto;html=1;endArrow=classic;endFill=1;entryX=0;entryY=0.5;entryDx=0;entryDy=0;" parent="1" edge="1">
          <mxGeometry relative="1" as="geometry">
            <mxPoint x="571" y="259" as="sourcePoint" />
            <mxPoint x="616" y="259" as="targetPoint" />
          </mxGeometry>
        </mxCell>
        <mxCell id="NBcu9S_2Oj-sg9Alpb2j-19" value="" style="edgeStyle=none;orthogonalLoop=1;jettySize=auto;html=1;rounded=0;entryX=0.5;entryY=0;entryDx=0;entryDy=0;dashed=1;" edge="1" parent="1" target="M6i8ldN1hpBLd04Djtbs-27">
          <mxGeometry width="100" relative="1" as="geometry">
            <mxPoint x="720" y="260" as="sourcePoint" />
            <mxPoint x="1210" y="330" as="targetPoint" />
            <Array as="points">
              <mxPoint x="1166" y="260" />
            </Array>
          </mxGeometry>
        </mxCell>
      </root>
    </mxGraphModel>
  </diagram>
</mxfile>
